<svg width="41.68mm" height="282.2mm" version="1.1" viewBox="0 0 41.68 282.2" xmlns="http://www.w3.org/2000/svg">
 <g transform="translate(-4.379 -9.915)">
  <path transform="scale(.2646)" d="m107 1033c-0.2086-0.047-0.275-0.1682-0.2161-0.3933 0.0467-0.1787 2.531-6.9 5.52-14.94 4.365-11.73 5.492-14.61 5.721-14.61 0.1572 0 0.3272 0.067 0.3777 0.1487 0.0897 0.1452-10.78 29.58-10.99 29.77-0.059 0.052-0.2428 0.064-0.4084 0.026zm-1.543-74.35c-7.707-12.3-8.143-13.04-7.846-13.25 0.1733-0.1215 0.3395-0.195 0.3693-0.1634 0.1072 0.114 16.14 25.72 16.2 25.87 0.0362 0.0901-0.0762 0.2524-0.2497 0.3608-0.2926 0.1828-0.9076-0.7478-8.476-12.83zm-2.65-39.33c-0.1723-0.2077 1.122-1.588 8.436-8.996 4.752-4.813 9.974-10.13 11.61-11.81 2.827-2.911 2.98-3.042 3.258-2.773 0.2783 0.2692 0.1614 0.4149-2.557 3.186-10.34 10.54-20.33 20.63-20.43 20.63-0.0623 0-0.2049-0.1104-0.3168-0.2453zm30.49-52.89c-0.1247-0.299-3.956-10.13-8.514-21.85-7.777-20-8.269-21.32-7.99-21.53 0.1636-0.1196 0.3467-0.1621 0.407-0.0943 0.2024 0.2276 16.88 43.26 16.89 43.58 0.021 0.5724-0.5415 0.498-0.7929-0.1049zm-38.2-178.3c-0.2233-0.1786 1.998-4.208 17.66-32.02 9.852-17.5 17.99-31.82 18.08-31.82 0.7683-5e-3 0.6199 0.2707-17.33 32.16-9.87 17.53-17.99 31.88-18.04 31.88-0.05505 0-0.215-0.0919-0.3555-0.2042zm12.86-120.4c-11.8-10.99-10.93-10.13-10.65-10.52 0.208-0.2844 0.9374 0.3575 10.01 8.809 5.383 5.014 10 9.323 10.26 9.575 0.4035 0.3881 0.4447 0.4985 0.2659 0.7139-0.1163 0.1401-0.2576 0.2535-0.314 0.252-0.0564-2e-3 -4.367-3.976-9.58-8.832zm-21.28-41.85c-0.1285-0.159 3.24-4.856 13.62-19 7.587-10.33 13.87-18.86 13.95-18.95 0.1033-0.1033 0.2507-0.0677 0.42 0.1016 0.2389 0.2389-0.9051 1.85-13.57 19.11-7.608 10.37-13.93 18.87-14.04 18.9-0.1154 0.0263-0.2866-0.0472-0.3804-0.1634zm19.43-117.6c-0.0814-0.1573-2.964-6.455-6.405-13.99-5.903-12.93-6.24-13.72-5.953-13.93 0.1671-0.1222 0.3509-0.1668 0.4084-0.099 0.07693 0.0906 11.13 24.27 12.6 27.54 0.1715 0.3841 0.1665 0.4859-0.0299 0.6102-0.3388 0.2144-0.4506 0.1906-0.6174-0.1318zm3.686-169.7c0.0629-1.415 1.679-47.56 1.679-47.94 0-0.1249 0.1758-0.2192 0.4085-0.2192 0.352 0 0.4085 0.0735 0.4083 0.531-1.1e-4 0.2921-0.3678 10.93-0.817 23.63-0.4492 12.7-0.8168 23.61-0.8168 24.22v1.125h-0.9218zm-14.61 449.4c0-0.4074 34.61-62.22 35.42-63.25 1.706-2.184-1.737 4.157-17.08 31.45-9.763 17.37-17.88 31.73-18.04 31.91-0.1765 0.2014-0.2911 0.1563-0.2911-0.1145zm12.24-121c-9.319-8.697-10.77-10.14-9.869-9.812 0.674 0.2467 20.34 18.81 20.09 18.96-0.1384 0.0831-4.736-4.034-10.22-9.149zm-20.51-41.43c0.158-0.4515 26.3-36.38 27.37-37.63 0.0693-0.0801 0.2157-0.0559 0.3254 0.0538 0.1839 0.1839-26.22 36.5-27.4 37.68-0.4639 0.4659-0.4974 0.4539-0.3008-0.1079zm13.07-131c-3.412-7.479-6.197-13.81-6.19-14.07 0.0077-0.2617 0.2697-4e-3 0.5822 0.5731 0.6299 1.163 12.34 26.75 12.34 26.96 0 1.004-1.515-2.025-6.733-13.46zm-22.87-271.5c-11.37-14.75-14.1-18.47-12.09-16.45 0.3833 0.3846 5.777 7.308 11.99 15.38 6.209 8.077 11.75 15.28 12.31 16 0.5616 0.7212 0.8616 1.311 0.6668 1.311-0.1948 0-5.988-7.309-12.87-16.24zm96.97 936.3-11.54-1.16-7.5 8.852-2.464-11.34-10.74-4.397 10.02-5.847 0.8644-11.57 8.657 7.723 11.27-2.753-4.67 10.62zm-135.3-71.19 3.91-11.53-7.281-9.757 12.17 0.1557 7.029-9.94 3.614 11.63 11.63 3.614-9.94 7.029 0.1556 12.17-9.757-7.281zm35.93-121.7-7.132-3.337-6.792 3.984 0.9695-7.814-5.888-5.229 7.731-1.493 3.153-7.215 3.809 6.892 7.837 0.7695-5.378 5.752zm79.85-166.1-7.705 1.06-3.495 6.948-3.389-7-7.688-1.177 5.61-5.386-1.257-7.675 6.857 3.671 6.912-3.567-1.373 7.656zm-95.33-68.74-7.705 1.06-3.495 6.948-3.389-7-7.688-1.177 5.611-5.386-1.257-7.675 6.857 3.671 6.911-3.567-1.373 7.656zm92.67-94.44-5.987-12.13-13.39-1.945 9.687-9.442-2.287-13.33 11.97 6.295 11.97-6.295-2.287 13.33 9.687 9.442-13.39 1.945zm-96.3-138.9-6.617 3.265-1.061 7.302-5.15-5.284-7.272 1.247 3.434-6.531-3.434-6.531 7.272 1.247 5.15-5.284 1.061 7.302zm93.56-134.2-4.927-4.425-6.439 1.55 2.686-6.053-3.464-5.644 6.587 0.6843 4.298-5.038 1.385 6.476 6.12 2.531-5.731 3.318zm-65.78-49.11-6.588-2.234-5.575 4.161 0.08889-6.956-5.68-4.017 6.643-2.065 2.065-6.643 4.017 5.68 6.956-0.0889-4.161 5.575zm-34-66.37-8.235-2.793-6.969 5.201 0.1111-8.695-7.1-5.021 8.304-2.581 2.581-8.304 5.021 7.1 8.695-0.1111-5.201 6.969zm68.85 854.4-11.19 30.07zm-20.63-57.69 16.43 26.22zm28.67-49.65-23.43 23.78zm-9.441-72.73 17.13 44.06zm14.34-198.6-36.01 63.99zm-33.92-67.13 20.63 19.23zm17.48-69.23-27.97 38.11zm-20.98-107.7 12.94 28.32zm18.18-189.9-1.748 49.65zm-47.55-84.27 25.87 33.57zm49.46 976-27.65-0.3995-16 22.55-8.164-26.42-26.39-8.252 22.6-15.93-0.3073-27.65 22.13 16.57 26.2-8.836-8.924 26.17zm32.76-75.86-12.49-9.794-15.15 4.74 5.453-14.91-9.19-12.94 15.86 0.5793 9.471-12.74 4.351 15.27 15.04 5.071-13.18 8.856zm-62.93-69.83 5.153-6.374-2.329-7.859 7.654 2.932 6.754-4.643-0.4228 8.186 6.503 4.989-7.916 2.127-2.735 7.727-4.469-6.871zm45.69-42.24 9.274-10.96-3.772-13.85 13.29 5.433 12.01-7.868-1.06 14.32 11.19 8.99-13.95 3.417-5.091 13.42-7.559-12.21zm-13.79-73.28-37.24-27.59-43.84 15.03 14.73-43.94-27.84-37.04 46.34 0.432 26.63-37.93 13.91 44.21 44.3 13.6-37.74 26.89zm39.85-214.2-16.13 1.613-7.816 14.2-6.519-14.84-15.92-3.044 12.1-10.79-2.025-16.08 14 8.176 14.67-6.896-3.45 15.84zm-111.6-49.63 12.79-12.66-3.177-17.72 16 8.255 15.87-8.497-2.908 17.76 12.98 12.47-17.79 2.723-7.843 16.2-8.088-16.08zm114-89.99-26.29-1.834-16.42 20.62-6.382-25.57-24.69-9.241 22.35-13.97 1.161-26.33 20.2 16.94 25.4-7.033-9.869 24.44zm-141.2-124.8 27.35-38.89-16.53-44.58 45.44 14 37.29-29.5 0.7287 47.54 39.58 26.35-44.99 15.38-12.83 45.78-28.53-38.03zm95.19-154.2-9.259-14.47-17.17-0.5779 10.9-13.28-4.757-16.51 16 6.267 14.23-9.626-1.017 17.15 13.55 10.56-16.63 4.333zm-48.89-84.92-13.48-18.74-23.08 0.4812 13.66-18.61-7.589-21.8 21.92 7.236 18.39-13.95-0.1088 23.08 18.95 13.17-21.99 7.029z" style="stroke-width:.1634"/>
 </g>
</svg>
