<svg width="210mm" height="297mm" version="1.1" viewBox="0 0 210 297" xmlns="http://www.w3.org/2000/svg">
 <path transform="scale(.2646)" d="m72.67 37.47-18.39 13.95-21.92-7.234 7.59 21.8-13.66 18.61 23.08-0.4824 13.48 18.74 6.674-22.1 21.98-7.029-18.95-13.18 0.1074-23.08zm-8.336 68.47 25.87 33.57-25.87-33.57zm-26.31 20.31-2.58 8.303-8.305 2.582 7.1 5.021-0.1113 8.695 6.969-5.201 8.236 2.793-2.793-8.236 5.201-6.969-8.695 0.1113-5.021-7.1zm83.66 13.33-14.23 9.625-16-6.268 4.756 16.51-10.9 13.28 17.17 0.5781 9.26 14.47 5.855-16.15 16.62-4.332-13.55-10.56 1.016-17.15zm-9.801 50.63-1.748 49.65 1.748-49.65zm-37.6 6.852-2.064 6.643-6.643 2.066 5.68 4.016-0.08984 6.957 5.576-4.162 6.588 2.234-2.234-6.588 4.16-5.574-6.955 0.08789-4.018-5.68zm35.82 45.99-37.29 29.5-45.44-14 16.53 44.58-27.36 38.89 47.51-1.943 28.53 38.03 12.83-45.78 44.99-15.38-39.58-26.35-0.7285-47.54zm37.74 1.949-4.299 5.039-6.586-0.6836 3.463 5.645-2.686 6.053 6.438-1.551 4.928 4.426 0.5156-6.602 5.73-3.318-6.119-2.531-1.385-6.477zm-54.15 135.1 12.94 28.32-12.94-28.32zm-45.83 7.51-5.15 5.285-7.273-1.248 3.434 6.531-3.434 6.531 7.273-1.248 5.15 5.283 1.061-7.301 6.615-3.266-6.615-3.266-1.061-7.303zm59.64 22.92-1.162 26.33-22.35 13.97 24.69 9.24 6.381 25.57 16.42-20.62 26.29 1.834-14.54-21.99 9.869-24.44-25.4 7.033-20.19-16.94zm7.166 77.26-27.97 38.11 27.97-38.11zm25.19 12.43 2.287 13.33-9.688 9.441 13.39 1.945 5.986 12.13 5.986-12.13 13.39-1.945-9.686-9.441 2.287-13.33-11.97 6.295-11.97-6.295zm-54.58 26.02-15.87 8.496-16-8.256 3.178 17.72-12.79 12.66 17.83 2.453 8.088 16.08 7.842-16.2 17.79-2.723-12.98-12.47 2.908-17.76zm11.91 30.79 20.63 19.23-20.63-19.23zm21.86 20.52 2.025 16.08-12.1 10.79 15.92 3.043 6.52 14.84 7.814-14.2 16.13-1.613-11.09-11.82 3.449-15.84-14.67 6.896-14-8.176zm-77.8 40.74 1.256 7.676-5.609 5.387 7.688 1.176 3.389 7.002 3.496-6.949 7.705-1.059-5.529-5.473 1.373-7.654-6.91 3.566-6.857-3.672zm89.86 5.875-36.01 63.99 36.01-63.99zm5.477 62.87 1.256 7.674-5.609 5.387 7.688 1.178 3.389 7 3.494-6.947 7.705-1.061-5.527-5.471 1.373-7.656-6.912 3.566-6.855-3.67zm-42.3 2.666-26.63 37.93-46.34-0.4316 27.85 37.04-14.73 43.94 43.84-15.04 37.24 27.59-0.752-46.34 37.74-26.89-44.3-13.6-13.91-44.21zm22.48 133.1 17.13 44.06-17.13-44.06zm-50.07 22.54-3.154 7.217-7.73 1.492 5.887 5.229-0.9688 7.814 6.793-3.984 7.131 3.338-1.689-7.691 5.377-5.752-7.836-0.7695-3.809-6.893zm93.4 21.45-12.01 7.867-13.29-5.432 3.771 13.85-9.273 10.96 14.34 0.6934 7.559 12.21 5.092-13.42 13.95-3.416-11.2-8.99 1.061-14.32zm-33.89 28.74-23.43 23.78 23.43-23.78zm-25.37 24.81-6.754 4.645-7.654-2.932 2.328 7.859-5.152 6.373 8.193 0.2129 4.469 6.871 2.736-7.727 7.914-2.127-6.502-4.988 0.4219-8.188zm-3.301 24.84 16.43 26.22-16.43-26.22zm-42.98 11.9-7.029 9.939-12.17-0.1543 7.281 9.756-3.91 11.53 11.53-3.91 9.758 7.281-0.1562-12.17 9.939-7.029-11.62-3.615-3.613-11.62zm85.93 3.963-9.471 12.74-15.87-0.5801 9.189 12.95-5.453 14.91 15.15-4.74 12.49 9.795 0.1738-15.88 13.18-8.855-15.04-5.07-4.352-15.27zm-22.32 41.83-11.19 30.07 11.19-30.07zm-60.3 23 0.3066 27.65-22.6 15.93 26.39 8.252 8.164 26.42 16-22.55 27.65 0.4004-16.5-22.19 8.924-26.17-26.2 8.836-22.13-16.57zm94.83 8.002-0.8652 11.57-10.02 5.846 10.73 4.396 2.465 11.34 7.5-8.852 11.54 1.16-6.102-9.869 4.67-10.62-11.27 2.754-8.656-7.725z"/>
</svg>
